<?xml version="1.0" encoding="utf-8"?>
<!-- Generator: Adobe Illustrator 24.1.0, SVG Export Plug-In . SVG Version: 6.00 Build 0)  -->
<svg version="1.1" id="Calque_1" xmlns="http://www.w3.org/2000/svg" xmlns:xlink="http://www.w3.org/1999/xlink" x="0px" y="0px"
	 viewBox="0 0 153.19 109.94" style="enable-background:new 0 0 153.19 109.94;" xml:space="preserve">
<style type="text/css">
	.st0{font-family:'Magneto-Bold';}
	.st1{font-size:9px;}
	.st2{opacity:0.31;}
	.st3{fill:none;stroke:#000000;stroke-width:0.75;stroke-miterlimit:10;}
	.st4{opacity:0.31;fill:#CCCCCC;}
	.st5{font-size:10.2902px;}
	.st6{fill:none;stroke:#FFFFFF;stroke-miterlimit:10;}
	.st7{stroke:#FFFFFF;stroke-miterlimit:10;}
</style>
<text transform="matrix(1 0 0 1 26.9991 89.9302)" class="st0 st1">BuildYourComputer</text>
<g class="st2">
	<path d="M80.73,60.98c-2.18,2.29-5.09,3.44-8.72,3.44c-0.92,0-1.77-0.11-2.56-0.28c-0.23,2.66-1.41,4.94-3.52,6.84
		c0.87-0.24,1.79-0.37,2.77-0.37h15.19l7.42-20.85L80.73,60.98z"/>
	<path d="M105.91,57.26c0-5.16,1.92-10.17,5.77-15.05c4.1-5.16,8.66-7.76,13.68-7.8c-0.19,0.59-0.28,1.29-0.28,2.11
		c0,2.46,0.97,4.54,2.92,6.22c1.88,1.59,4.07,2.39,6.57,2.39c2.48,0,4.65-0.8,6.5-2.39c1.95-1.69,2.92-3.76,2.92-6.22
		c0-2.25-0.9-4.24-2.69-5.98c-1.79-1.73-3.83-2.6-6.1-2.6h-7.03c-6.38,0-12.42,1.43-18.12,4.25l1.48-4.26h-8.27
		c-0.91,0-1.97,0.26-3.16,0.77c-1.2,0.52-2.06,1.13-2.6,1.83L76.83,57l7.48-21.02c0.33-0.94,0.5-1.86,0.5-2.78
		c0-1.61-0.51-2.9-1.52-3.85c-1-0.95-2.32-1.42-3.93-1.42H56.51c-0.02,0-0.04,0-0.06,0H24.07l-5.41,8.86h41.13
		c5.51,0,8.26,1.81,8.26,5.41c0,2.55-1.13,4.8-3.38,6.75c-1.34,1.17-3.45,2.45-6.33,3.83c-2.09,0.98-3.36,1.99-3.83,3.02
		c-0.05,0.14-0.07,0.38-0.07,0.7c0,0.66,0.47,1.71,1.41,3.15s1.41,2.68,1.41,3.71c0,3.23-2.1,5.57-6.29,7
		c-2.84,0.94-6.3,1.41-10.41,1.41h-1.79l10.79-30.45H36.9L24.21,77.4h18.28c6.42,0,12.05-0.89,16.88-2.67
		c0.77-0.29,1.5-0.59,2.18-0.92c-0.84,1-1.47,2.19-1.85,3.59h27.22c2.18,0,4.16-0.6,5.94-1.8c1.74-1.16,2.96-2.75,3.7-4.75
		c1.35,1.15,2.94,2.16,4.78,3.03c5.04,2.34,11.6,3.52,19.69,3.52H134c4.97,0,7.82-1.88,8.54-5.63h-17.68
		C112.23,71.78,105.91,66.94,105.91,57.26z M83.89,70.61H68.7c-0.98,0-1.9,0.13-2.77,0.37c2.11-1.9,3.28-4.18,3.52-6.84
		c0.8,0.18,1.64,0.28,2.56,0.28c3.63,0,6.54-1.15,8.72-3.44l10.58-11.22L83.89,70.61z"/>
</g>
<path class="st3" d="M65.84,34.94"/>
<text transform="matrix(0.8746 0 -0.4848 -0.8746 26.9951 89.9372)" class="st4 st0 st5">BuildYourComputer</text>
<g>
	<path class="st6" d="M76.5,63.89c-2.18,2.29-5.09,3.44-8.72,3.44c-0.92,0-1.77-0.11-2.56-0.28c-0.23,2.66-1.41,4.94-3.52,6.84
		c0.87-0.24,1.79-0.37,2.77-0.37h15.19l7.42-20.85L76.5,63.89z"/>
	<path class="st7" d="M101.68,60.16c0-5.16,1.92-10.17,5.77-15.05c4.1-5.16,8.66-7.76,13.68-7.8c-0.19,0.59-0.28,1.29-0.28,2.11
		c0,2.46,0.97,4.54,2.92,6.22c1.88,1.59,4.07,2.39,6.57,2.39c2.48,0,4.65-0.8,6.5-2.39c1.95-1.69,2.92-3.76,2.92-6.22
		c0-2.25-0.9-4.24-2.69-5.98c-1.79-1.73-3.83-2.6-6.1-2.6h-7.03c-6.38,0-12.42,1.43-18.12,4.25l1.48-4.26h-8.27
		c-0.91,0-1.97,0.26-3.16,0.77c-1.2,0.52-2.06,1.13-2.6,1.83L72.6,59.91l7.48-21.02c0.33-0.94,0.5-1.86,0.5-2.78
		c0-1.61-0.51-2.9-1.52-3.85c-1-0.95-2.32-1.42-3.93-1.42H52.28c-0.02,0-0.04,0-0.06,0H19.84l-5.41,8.86h41.13
		c5.51,0,8.26,1.81,8.26,5.41c0,2.55-1.13,4.8-3.38,6.75c-1.34,1.17-3.45,2.45-6.33,3.83c-2.09,0.98-3.36,1.99-3.83,3.02
		c-0.05,0.14-0.07,0.38-0.07,0.7c0,0.66,0.47,1.71,1.41,3.15s1.41,2.68,1.41,3.71c0,3.23-2.1,5.57-6.29,7
		c-2.84,0.94-6.3,1.41-10.41,1.41h-1.79l10.79-30.45H32.67L19.98,80.31h18.28c6.42,0,12.05-0.89,16.88-2.67
		c0.77-0.29,1.5-0.59,2.18-0.92c-0.84,1-1.47,2.19-1.85,3.59h27.22c2.18,0,4.16-0.6,5.94-1.8c1.74-1.16,2.96-2.75,3.7-4.75
		c1.35,1.15,2.94,2.16,4.78,3.03c5.04,2.34,11.6,3.52,19.69,3.52h12.97c4.97,0,7.82-1.88,8.54-5.63h-17.68
		C108,74.68,101.68,69.84,101.68,60.16z M79.66,73.52H64.47c-0.98,0-1.9,0.13-2.77,0.37c2.11-1.9,3.28-4.18,3.52-6.84
		c0.8,0.18,1.64,0.28,2.56,0.28c3.63,0,6.54-1.15,8.72-3.44l10.58-11.22L79.66,73.52z"/>
</g>
</svg>
